<?xml version="1.0" encoding="UTF-8" standalone="no"?><!DOCTYPE svg PUBLIC "-//W3C//DTD SVG 1.1//EN" "http://www.w3.org/Graphics/SVG/1.1/DTD/svg11.dtd"><svg width="100%" height="100%" viewBox="0 0 2602 2602" version="1.1" xmlns="http://www.w3.org/2000/svg" xmlns:xlink="http://www.w3.org/1999/xlink" xml:space="preserve" xmlns:serif="http://www.serif.com/" style="fill-rule:evenodd;clip-rule:evenodd;stroke-linejoin:round;stroke-miterlimit:2;"><rect id="Orca-intense-peach-no-frame" serif:id="Orca intense peach no frame" x="0" y="0" width="2601.75" height="2601.75" style="fill:none;"/><circle cx="1299.56" cy="1300.67" r="1279.95" style="fill:url(#_Linear1);"/><clipPath id="_clip2"><circle cx="1299.56" cy="1300.67" r="1279.95"/></clipPath><g clip-path="url(#_clip2)"><path d="M-395.165,1889.12c0,0 91.843,-778.981 147.477,-893.324c43.364,-89.127 75.039,207.265 186.323,207.265c111.283,0 379.351,-201.589 481.376,-207.265c102.025,-5.676 38.023,173.209 130.773,173.209c92.75,0 323.701,-178.885 425.726,-173.209c102.025,5.676 75.123,207.265 186.423,207.265c111.3,0 370.076,-207.265 481.376,-207.265c111.3,0 75.123,207.265 186.423,207.265c111.3,0 370.076,-207.265 481.376,-207.265c111.3,0 75.123,207.265 186.423,207.265c111.3,0 437.981,-296.401 481.376,-207.265c55.666,114.343 -147.377,893.324 -147.377,893.324l-3227.7,0Z" style="fill:url(#_Linear3);"/></g><clipPath id="_clip4"><circle cx="1299.56" cy="1300.67" r="1279.95"/></clipPath><g clip-path="url(#_clip4)"><path d="M-395.165,2117.28c0,0 91.843,-778.981 147.477,-893.324c43.364,-89.128 75.039,207.265 186.323,207.265c111.283,0 379.351,-201.589 481.376,-207.265c102.025,-5.677 38.023,173.208 130.773,173.208c92.75,0 323.701,-178.885 425.726,-173.208c102.025,5.676 75.123,207.265 186.423,207.265c111.3,0 370.076,-207.265 481.376,-207.265c111.3,0 75.123,207.265 186.423,207.265c111.3,0 370.076,-207.265 481.376,-207.265c111.3,0 75.123,207.265 186.423,207.265c111.3,0 437.981,-296.401 481.376,-207.265c55.666,114.343 -147.377,893.324 -147.377,893.324l-3227.7,0Z" style="fill:url(#_Linear5);"/></g><path d="M1218.9,1865.5c-202.43,-14.917 -986.758,133.404 -1002.04,104.267c-150.341,-286.597 -67.31,-633.318 286.948,-995.789c32.24,-32.987 33.858,-71.016 -10.743,-153.741c-57.849,-107.297 -70.974,-96.116 -135.925,-162.582c-16.079,-16.454 42.066,-94.961 222.999,-99.971c148.14,-4.103 340.53,156.498 436.809,126.174c155.195,-48.881 315.077,-109.832 453.607,-166.591c197.935,-80.943 424.865,-39.469 581.374,106.252c24.129,22.524 47.91,37.094 69.377,37.942c24.941,0.985 43.622,6.876 57.564,15.609c23.169,14.562 36.876,40.32 36.012,67.671c-0.865,27.352 -16.171,52.193 -40.213,65.264c-72.163,38.833 -225.823,111.587 -354.718,105.71c-166.324,-7.584 -63.064,279.112 -137.738,324.319c-601.523,364.16 -463.31,625.466 -463.31,625.466Z" style="fill:url(#_Radial6);"/><path d="M2122.84,1096.04c108.178,-86.937 89.423,-115.795 49.133,-124.444c-4.994,-1.072 -11.277,-0.629 -18.452,0.97c-104.474,23.016 -213.763,6.838 -307.088,-45.459c-29.273,-16.262 -55.271,-24.785 -70.441,-16.271c-59.221,33.236 -94.184,66.35 -114.413,91.376c-28.092,34.836 -62.039,64.511 -100.319,87.692c-7.13,4.513 -14.552,9.007 -22.021,13.531c-72.756,44.059 -138.043,99.406 -193.418,163.967c-9.701,11.31 -19.634,22.891 -29.434,34.316c-60.755,70.835 -112.036,149.274 -152.549,233.343c-65.924,136.795 -161.644,335.422 -161.644,335.422l-205.043,-249.869l25.242,152.46l718.995,160.904c250.45,-163.08 -151.105,69.946 259.6,-476.931c10.664,-14.201 24.733,-25.488 40.907,-32.822c-0.003,-0.007 -0.003,-0.007 -0.003,-0.007c104.538,-47.401 184.635,-136.169 221.077,-245.012c9.362,-28.263 27.569,-57.206 59.871,-83.166Z" style="fill:url(#_Linear7);"/><circle cx="1727.04" cy="831.408" r="56.157" style="fill:url(#_Radial8);"/><path d="M1727.04,775.251c-30.994,0 -56.157,25.163 -56.157,56.157c0,30.994 25.163,56.157 56.157,56.157c30.994,0 56.157,-25.163 56.157,-56.157c0,-30.994 -25.163,-56.157 -56.157,-56.157Zm0,10.417c25.245,0 45.741,20.495 45.741,45.74c0,25.245 -20.496,45.741 -45.741,45.741c-25.245,0 -45.74,-20.496 -45.74,-45.741c0,-25.245 20.495,-45.74 45.74,-45.74Z" style="fill:#c0c0c0;"/><circle cx="1703.88" cy="814.634" r="23.906" style="fill:#fff;"/><path d="M1492.44,679.694c-63.756,6.398 -235.858,80.84 -229.46,144.596c6.398,63.756 188.888,92.838 252.644,86.44c63.757,-6.397 140.163,-82.379 135.205,-127.466c-4.958,-45.088 -94.632,-109.968 -158.389,-103.57Z" style="fill:#f6f6f6;"/><clipPath id="_clip9"><circle cx="1299.56" cy="1300.67" r="1279.95"/></clipPath><g clip-path="url(#_clip9)"><path d="M-395.165,2389.97c0,0 91.843,-778.982 147.477,-893.325c43.364,-89.127 75.039,207.266 186.323,207.266c111.283,0 379.351,-201.59 481.376,-207.266c102.025,-5.676 38.023,173.209 130.773,173.209c92.75,0 323.701,-178.885 425.726,-173.209c102.025,5.676 75.123,207.266 186.423,207.266c111.3,0 370.076,-207.266 481.376,-207.266c111.3,0 75.123,207.266 186.423,207.266c111.3,0 370.076,-207.266 481.376,-207.266c111.3,0 75.123,207.266 186.423,207.266c111.3,0 437.981,-296.402 481.376,-207.266c55.666,114.343 -147.377,893.325 -147.377,893.325l-3227.7,0Z" style="fill:url(#_Linear10);"/></g><clipPath id="_clip11"><circle cx="1299.56" cy="1300.67" r="1279.95"/></clipPath><g clip-path="url(#_clip11)"><path d="M-395.23,2670.55c0,0 91.843,-778.982 147.477,-893.325c43.364,-89.127 75.039,207.266 186.323,207.266c111.283,0 379.351,-201.59 481.376,-207.266c102.025,-5.676 38.023,173.209 130.773,173.209c92.75,0 323.701,-178.885 425.726,-173.209c102.025,5.676 75.123,207.266 186.423,207.266c111.3,0 370.076,-207.266 481.376,-207.266c111.3,0 75.123,207.266 186.423,207.266c111.3,0 370.076,-207.266 481.376,-207.266c111.3,0 75.123,207.266 186.423,207.266c111.299,0 437.981,-296.402 481.376,-207.266c55.666,114.343 -147.377,893.325 -147.377,893.325l-3227.7,0Z" style="fill:url(#_Linear12);"/></g><defs><linearGradient id="_Linear1" x1="0" y1="0" x2="1" y2="0" gradientUnits="userSpaceOnUse" gradientTransform="matrix(2.47963,-1299.37,1299.37,2.47963,1299.56,1300.67)"><stop offset="0" style="stop-color:#d4252c;stop-opacity:1"/><stop offset="0.52" style="stop-color:#f4830c;stop-opacity:1"/><stop offset="1" style="stop-color:#ffa500;stop-opacity:1"/></linearGradient><linearGradient id="_Linear3" x1="0" y1="0" x2="1" y2="0" gradientUnits="userSpaceOnUse" gradientTransform="matrix(3.74316e-14,-342.93,91.6956,3.14976e-15,1349.33,1396.14)"><stop offset="0" style="stop-color:#40879d;stop-opacity:1"/><stop offset="1" style="stop-color:#98ddf0;stop-opacity:1"/></linearGradient><linearGradient id="_Linear5" x1="0" y1="0" x2="1" y2="0" gradientUnits="userSpaceOnUse" gradientTransform="matrix(3.74316e-14,-342.93,91.6956,3.14976e-15,1349.33,1624.3)"><stop offset="0" style="stop-color:#40879d;stop-opacity:1"/><stop offset="1" style="stop-color:#98ddf0;stop-opacity:1"/></linearGradient><radialGradient id="_Radial6" cx="0" cy="0" r="1" gradientUnits="userSpaceOnUse" gradientTransform="matrix(-1157,-1406.94,-2100.72,1698.43,819.649,2087.58)"><stop offset="0" style="stop-color:#212121;stop-opacity:1"/><stop offset="0.57" style="stop-color:#373737;stop-opacity:1"/><stop offset="0.79" style="stop-color:#656565;stop-opacity:1"/><stop offset="1" style="stop-color:#919191;stop-opacity:1"/></radialGradient><linearGradient id="_Linear7" x1="0" y1="0" x2="1" y2="0" gradientUnits="userSpaceOnUse" gradientTransform="matrix(-1.62524,1091.71,1091.71,1.62524,2203.19,742.43)"><stop offset="0" style="stop-color:#fff;stop-opacity:1"/><stop offset="0.52" style="stop-color:#dadbdc;stop-opacity:1"/><stop offset="1" style="stop-color:#606269;stop-opacity:1"/></linearGradient><radialGradient id="_Radial8" cx="0" cy="0" r="1" gradientUnits="userSpaceOnUse" gradientTransform="matrix(-56.1571,0,0,56.1571,1727.04,831.408)"><stop offset="0" style="stop-color:#021c60;stop-opacity:1"/><stop offset="1" style="stop-color:#030719;stop-opacity:1"/></radialGradient><linearGradient id="_Linear10" x1="0" y1="0" x2="1" y2="0" gradientUnits="userSpaceOnUse" gradientTransform="matrix(3.74316e-14,-342.93,91.6956,3.14976e-15,1349.33,1896.99)"><stop offset="0" style="stop-color:#40879d;stop-opacity:1"/><stop offset="1" style="stop-color:#98ddf0;stop-opacity:1"/></linearGradient><linearGradient id="_Linear12" x1="0" y1="0" x2="1" y2="0" gradientUnits="userSpaceOnUse" gradientTransform="matrix(-30.3944,-725.244,193.922,-8.12713,1379.65,2559.88)"><stop offset="0" style="stop-color:#40879d;stop-opacity:1"/><stop offset="1" style="stop-color:#98ddf0;stop-opacity:1"/></linearGradient></defs></svg>